<svg width="284" height="96" viewBox="0 0 284 96" fill="none" xmlns="http://www.w3.org/2000/svg">
<path d="M50.5425 10.3369C51.3378 8.57016 53.9292 8.85326 54.3242 10.75L59.2172 34.242C59.3939 35.0902 60.0967 35.7283 60.958 35.8223L84.8122 38.4282C86.7382 38.6386 87.2698 41.1907 85.588 42.1525L64.7578 54.0655C64.0056 54.4956 63.616 55.3612 63.7927 56.2094L68.6857 79.7014C69.0808 81.5982 66.8179 82.8923 65.3834 81.59L47.6166 65.4607C46.9751 64.8783 46.0315 64.7752 45.2794 65.2053L24.4492 77.1183C22.7674 78.0801 20.8373 76.3279 21.6325 74.5612L31.4823 52.6798C31.8379 51.8897 31.6444 50.9604 31.0028 50.378L13.2361 34.2486C11.8016 32.9463 12.8716 30.5693 14.7976 30.7797L38.6518 33.3856C39.5132 33.4797 40.3371 33.0084 40.6928 32.2183L50.5425 10.3369Z" fill="white"/>
<path fill-rule="evenodd" clip-rule="evenodd" d="M59.8382 35.7C59.6446 35.6789 59.4866 35.5355 59.4469 35.3448L54.3242 10.75C53.9292 8.85326 51.3378 8.57017 50.5425 10.3369L40.6928 32.2183C40.3371 33.0084 39.5132 33.4797 38.6518 33.3856L14.7976 30.7797C12.8716 30.5693 11.8016 32.9463 13.2361 34.2486L31.0029 50.378C31.6444 50.9604 31.8379 51.8897 31.4823 52.6798L21.6325 74.5612C20.8373 76.3279 22.7674 78.0801 24.4492 77.1183L46.3843 64.5735C46.4776 64.5201 46.5946 64.5329 46.6742 64.6051C46.798 64.7175 46.9953 64.6778 47.0659 64.5262L60.1968 36.3366C60.3268 36.0576 60.1442 35.7334 59.8382 35.7Z" fill="#FFEC89"/>
<path d="M67.7079 39.469C68.5032 37.7022 71.0946 37.9853 71.4897 39.8821L73.8345 51.1397C74.0111 51.988 74.7139 52.626 75.5752 52.7201L87.0065 53.9689C88.9325 54.1793 89.464 56.7313 87.7822 57.6932L77.8001 63.402C77.048 63.8322 76.6584 64.6977 76.835 65.5459L79.1798 76.8036C79.5749 78.7003 77.312 79.9945 75.8775 78.6922L67.3635 70.9628C66.7219 70.3804 65.7784 70.2773 65.0262 70.7075L55.0441 76.4163C53.3623 77.3782 51.4322 75.626 52.2275 73.8593L56.9476 63.3734C57.3032 62.5833 57.1097 61.654 56.4682 61.0716L47.9541 53.3422C46.5196 52.04 47.5897 49.6629 49.5156 49.8733L60.9469 51.122C61.8082 51.2161 62.6322 50.7449 62.9878 49.9548L67.7079 39.469Z" fill="white"/>
<path fill-rule="evenodd" clip-rule="evenodd" d="M55.2922 72.0891C54.4686 73.8573 56.4048 75.6381 58.0981 74.6697L65.0262 70.7075C65.7784 70.2773 66.7219 70.3804 67.3635 70.9628L75.8775 78.6922C77.312 79.9945 79.5749 78.7003 79.1798 76.8036L76.835 65.5459C76.6584 64.6977 77.048 63.8321 77.8001 63.402L87.7822 57.6931C89.464 56.7313 88.9325 54.1792 87.0065 53.9688L75.5752 52.7201C74.7139 52.626 74.0111 51.988 73.8344 51.1397L72.3484 44.0049C71.956 42.121 69.39 41.8239 68.5774 43.5682L55.2922 72.0891Z" fill="#FFEC89"/>
<path d="M63.1455 30.0909V65H56.8216V30.0909H63.1455ZM68.4594 35.392V30.0909H96.3117V35.392H85.5219V65H79.2492V35.392H68.4594ZM101.681 30.0909H109.42L119.783 55.3864H120.192L130.556 30.0909H138.295V65H132.226V41.017H131.903L122.255 64.8977H117.721L108.073 40.9659H107.749V65H101.681V30.0909ZM176.374 47.5455C176.374 51.3068 175.67 54.5284 174.261 57.2102C172.863 59.8807 170.954 61.9261 168.533 63.3466C166.124 64.767 163.391 65.4773 160.334 65.4773C157.278 65.4773 154.539 64.767 152.118 63.3466C149.709 61.9148 147.8 59.8636 146.391 57.1932C144.993 54.5114 144.295 51.2955 144.295 47.5455C144.295 43.7841 144.993 40.5682 146.391 37.8977C147.8 35.2159 149.709 33.1648 152.118 31.7443C154.539 30.3239 157.278 29.6136 160.334 29.6136C163.391 29.6136 166.124 30.3239 168.533 31.7443C170.954 33.1648 172.863 35.2159 174.261 37.8977C175.67 40.5682 176.374 43.7841 176.374 47.5455ZM170.016 47.5455C170.016 44.8977 169.601 42.6648 168.772 40.8466C167.954 39.017 166.817 37.6364 165.363 36.7045C163.908 35.7614 162.232 35.2898 160.334 35.2898C158.437 35.2898 156.761 35.7614 155.306 36.7045C153.851 37.6364 152.709 39.017 151.88 40.8466C151.062 42.6648 150.653 44.8977 150.653 47.5455C150.653 50.1932 151.062 52.4318 151.88 54.2614C152.709 56.0795 153.851 57.4602 155.306 58.4034C156.761 59.3352 158.437 59.8011 160.334 59.8011C162.232 59.8011 163.908 59.3352 165.363 58.4034C166.817 57.4602 167.954 56.0795 168.772 54.2614C169.601 52.4318 170.016 50.1932 170.016 47.5455ZM183.678 65.375C182.644 65.375 181.758 65.0114 181.019 64.2841C180.28 63.5568 179.917 62.6705 179.928 61.625C179.917 60.6023 180.28 59.7273 181.019 59C181.758 58.2727 182.644 57.9091 183.678 57.9091C184.678 57.9091 185.547 58.2727 186.286 59C187.036 59.7273 187.417 60.6023 187.428 61.625C187.417 62.3182 187.235 62.9489 186.883 63.517C186.542 64.0852 186.087 64.5398 185.519 64.8807C184.962 65.2102 184.349 65.375 183.678 65.375ZM193.799 65V38.8182H199.782V43.1818H200.055C200.532 41.6705 201.35 40.5057 202.509 39.6875C203.68 38.858 205.015 38.4432 206.515 38.4432C206.856 38.4432 207.236 38.4602 207.657 38.4943C208.089 38.517 208.447 38.5568 208.731 38.6136V44.2898C208.469 44.1989 208.055 44.1193 207.486 44.0511C206.93 43.9716 206.39 43.9318 205.867 43.9318C204.742 43.9318 203.731 44.1761 202.833 44.6648C201.947 45.142 201.248 45.8068 200.736 46.6591C200.225 47.5114 199.969 48.4943 199.969 49.608V65H193.799ZM219.895 65.5284C218.236 65.5284 216.742 65.233 215.413 64.642C214.094 64.0398 213.049 63.1534 212.276 61.983C211.515 60.8125 211.134 59.3693 211.134 57.6534C211.134 56.1761 211.407 54.9545 211.952 53.9886C212.498 53.0227 213.242 52.25 214.185 51.6705C215.128 51.0909 216.191 50.6534 217.373 50.358C218.566 50.0511 219.799 49.8295 221.072 49.6932C222.606 49.5341 223.85 49.392 224.805 49.267C225.759 49.1307 226.452 48.9261 226.884 48.6534C227.327 48.3693 227.549 47.9318 227.549 47.3409V47.2386C227.549 45.9545 227.168 44.9602 226.407 44.2557C225.645 43.5511 224.549 43.1989 223.117 43.1989C221.606 43.1989 220.407 43.5284 219.52 44.1875C218.645 44.8466 218.055 45.625 217.748 46.5227L211.986 45.7045C212.441 44.1136 213.191 42.7841 214.236 41.7159C215.282 40.6364 216.56 39.8295 218.072 39.2955C219.583 38.75 221.253 38.4773 223.083 38.4773C224.344 38.4773 225.6 38.625 226.85 38.9205C228.1 39.2159 229.242 39.7045 230.276 40.3864C231.31 41.0568 232.14 41.9716 232.765 43.1307C233.401 44.2898 233.719 45.7386 233.719 47.4773V65H227.788V61.4034H227.583C227.208 62.1307 226.68 62.8125 225.998 63.4489C225.327 64.0739 224.481 64.5795 223.458 64.9659C222.447 65.3409 221.259 65.5284 219.895 65.5284ZM221.498 60.9943C222.736 60.9943 223.81 60.75 224.719 60.2614C225.628 59.7614 226.327 59.1023 226.816 58.2841C227.316 57.4659 227.566 56.5739 227.566 55.608V52.5227C227.373 52.6818 227.043 52.8295 226.577 52.9659C226.123 53.1023 225.611 53.2216 225.043 53.3239C224.475 53.4261 223.913 53.517 223.356 53.5966C222.799 53.6761 222.316 53.7443 221.907 53.8011C220.986 53.9261 220.163 54.1307 219.435 54.4148C218.708 54.6989 218.134 55.0966 217.714 55.608C217.293 56.108 217.083 56.7557 217.083 57.5511C217.083 58.6875 217.498 59.5455 218.327 60.125C219.157 60.7045 220.214 60.9943 221.498 60.9943ZM252.998 38.8182V43.5909H237.947V38.8182H252.998ZM241.663 32.5455H247.833V57.125C247.833 57.9545 247.958 58.5909 248.208 59.0341C248.469 59.4659 248.81 59.7614 249.231 59.9205C249.651 60.0795 250.117 60.1591 250.628 60.1591C251.015 60.1591 251.367 60.1307 251.685 60.0739C252.015 60.017 252.265 59.9659 252.435 59.9205L253.475 64.7443C253.145 64.858 252.674 64.983 252.06 65.1193C251.458 65.2557 250.719 65.3352 249.844 65.358C248.299 65.4034 246.907 65.1705 245.668 64.6591C244.43 64.1364 243.447 63.3295 242.719 62.2386C242.003 61.1477 241.651 59.7841 241.663 58.1477V32.5455ZM269.468 65.5114C266.843 65.5114 264.576 64.9659 262.667 63.875C260.769 62.7727 259.309 61.2159 258.286 59.2045C257.263 57.1818 256.752 54.8011 256.752 52.0625C256.752 49.3693 257.263 47.0057 258.286 44.9716C259.32 42.9261 260.763 41.3352 262.616 40.1989C264.468 39.0511 266.644 38.4773 269.144 38.4773C270.758 38.4773 272.28 38.7386 273.712 39.2614C275.155 39.7727 276.428 40.5682 277.53 41.6477C278.644 42.7273 279.519 44.1023 280.155 45.7727C280.792 47.4318 281.11 49.4091 281.11 51.7045V53.5966H259.65V49.4375H275.195C275.184 48.2557 274.928 47.2045 274.428 46.2841C273.928 45.3523 273.229 44.6193 272.332 44.0852C271.445 43.5511 270.411 43.2841 269.229 43.2841C267.968 43.2841 266.86 43.5909 265.905 44.2045C264.951 44.8068 264.207 45.6023 263.672 46.5909C263.15 47.5682 262.883 48.642 262.871 49.8125V53.4432C262.871 54.9659 263.15 56.2727 263.707 57.3636C264.263 58.4432 265.042 59.2727 266.042 59.8523C267.042 60.4205 268.212 60.7045 269.553 60.7045C270.451 60.7045 271.263 60.5795 271.991 60.3295C272.718 60.0682 273.349 59.6875 273.883 59.1875C274.417 58.6875 274.82 58.0682 275.093 57.3295L280.854 57.9773C280.491 59.5 279.797 60.8295 278.775 61.9659C277.763 63.0909 276.468 63.9659 274.888 64.5909C273.309 65.2045 271.502 65.5114 269.468 65.5114Z" fill="#25272B"/>
</svg>
