<svg width="225" height="98" viewBox="0 0 225 98" fill="none" xmlns="http://www.w3.org/2000/svg">
<g filter="url(#filter0_d_138_1338)">
<g filter="url(#filter1_d_138_1338)">
<g clip-path="url(#clip0_138_1338)">
<path d="M64.2241 23.8336L64.2227 23.8343C61.9882 24.9363 61.0941 27.4572 62.1211 29.6405L62.1227 29.6439C63.2064 31.9934 65.9616 32.9428 68.3499 31.7823L68.3515 31.7814C71.1639 30.4277 71.8145 26.9564 69.7126 24.796L69.7121 24.7956C69.203 24.2709 68.7183 23.9228 68.192 23.7019C67.6653 23.4808 67.0673 23.3747 66.3146 23.3747C65.3941 23.3747 64.9379 23.4787 64.2241 23.8336Z" stroke="#C3CDE1"/>
<path d="M179.657 41.3686L179.655 41.37C177.281 43.5211 175.727 46.1478 174.82 49.4852L174.82 49.4864C174.585 50.3413 174.46 50.885 174.39 51.5859C174.319 52.2992 174.304 53.1838 174.304 54.7208L174.304 54.7242C174.284 57.636 174.363 58.3558 174.704 59.7504C175.284 62.0352 175.953 63.5349 177.185 65.3723L177.186 65.3744C179.482 68.8373 183.169 71.3883 187.816 72.6782C188.697 72.9217 189.212 73.0449 189.928 73.1119C190.661 73.1806 191.61 73.1909 193.356 73.1909C195.103 73.1909 196.051 73.1806 196.784 73.1119C197.5 73.0449 198.015 72.9218 198.896 72.6785C199.934 72.3863 201.346 71.9038 202.021 71.587L202.021 71.5869L202.027 71.5838C206.404 69.6092 209.975 65.8544 211.388 61.7724C212.894 57.396 212.894 52.2425 211.388 47.866C209.573 42.6409 204.875 38.5372 198.704 36.8826C197.647 36.604 195.761 36.4324 193.815 36.3981C191.87 36.3639 189.946 36.4682 188.817 36.711C185.16 37.5192 182.276 38.9749 179.657 41.3686ZM196.098 44.6993L196.1 44.6999C198.421 45.246 200.287 46.4588 201.569 48.2112C202.848 49.9605 203.524 52.2166 203.524 54.8191C203.524 58.0489 202.619 60.5086 200.645 62.4304C198.763 64.2811 196.26 65.2464 193.356 65.2464C190.316 65.2464 187.763 64.2276 185.97 62.3874C184.178 60.5486 183.189 57.9336 183.189 54.8191C183.189 52.2364 183.859 49.9862 185.125 48.2378C186.393 46.4867 188.237 45.2677 190.53 44.7205C192.113 44.3276 194.484 44.3291 196.098 44.6993Z" stroke="#C3CDE1"/>
<path d="M61.6547 55.0534V55.0539L61.6921 72.5859C61.6927 72.8631 61.9187 73.087 62.1959 73.0848L66.2891 73.0533L66.291 73.0533L70.3815 73.0058C70.6554 73.0026 70.8757 72.7797 70.8757 72.5058V54.8191V37.1439C70.8757 36.8678 70.6519 36.6439 70.3757 36.6439H61.2931H51.8988C51.6965 36.6439 51.5141 36.7659 51.4368 36.9529L44.0612 54.7935L44.061 54.7939L38.3582 68.6241C37.733 70.1403 35.4767 69.6972 35.4715 68.0571L35.4282 54.5651L35.4282 54.5646L35.3908 37.0446C35.3902 36.7688 35.1665 36.5456 34.8908 36.5456H30.7485H26.6083C26.3322 36.5456 26.1083 36.7695 26.1083 37.0456V54.8191V72.5888C26.1083 72.8657 26.3333 73.0898 26.6102 73.0888L36.0045 73.0533L36.0054 73.0533L45.7481 72.9981C45.9521 72.997 46.1349 72.872 46.2101 72.6824L53.2959 54.8117L58.7176 41.1381C59.3263 39.603 61.6067 40.0348 61.6119 41.6862L61.6547 55.0534Z" stroke="#C3CDE1"/>
<path d="M132.785 36.6394L124.693 36.5849L124.692 36.5849L116.959 36.5501C116.682 36.5489 116.457 36.7731 116.457 37.0501V54.8191V72.5848C116.457 72.8625 116.683 73.087 116.961 73.0848L121.052 73.0533L121.054 73.0533L125.151 73.0057C125.423 73.0025 125.643 72.7816 125.645 72.509L125.737 58.4722L125.802 48.5999C125.813 46.9511 128.089 46.5244 128.697 48.0572L132.752 58.2908L132.752 58.2913L138.471 72.679C138.547 72.8693 138.731 72.9943 138.936 72.9943H143.556H148.156C148.361 72.9943 148.545 72.8693 148.62 72.6789L154.32 58.3304L154.32 58.3302L158.376 48.1093C158.983 46.5771 161.259 47.0042 161.27 48.6526L161.335 58.5115L161.427 72.509C161.429 72.7816 161.649 73.0025 161.921 73.0057L166.038 73.0533L166.04 73.0533L170.111 73.0848C170.389 73.0869 170.615 72.8625 170.615 72.5848V54.8191V37.0501C170.615 36.7731 170.39 36.5489 170.113 36.5501L162.38 36.5849L162.379 36.5849L154.306 36.6394C154.105 36.6408 153.924 36.7627 153.847 36.9488L149.139 48.3651C146.568 54.6076 144.375 59.8407 144.08 60.4736C144.046 60.5453 143.969 60.6764 143.812 60.7556C143.723 60.8006 143.601 60.831 143.464 60.8035C143.328 60.7763 143.23 60.7029 143.167 60.6336C143.098 60.5578 143.036 60.4578 142.986 60.372C142.931 60.277 142.87 60.1622 142.806 60.0346C142.679 59.7788 142.532 59.4553 142.383 59.102C142.13 58.5005 140.92 55.5712 139.378 51.8346C138.747 50.3067 138.06 48.644 137.36 46.9502L137.36 46.9496L133.244 36.9491C133.167 36.7629 132.986 36.6408 132.785 36.6394Z" stroke="#C3CDE1"/>
<path d="M75.1378 40.7636V44.2849C75.1378 44.5611 75.3616 44.7849 75.6378 44.7849H81.5573H87.4767C88.3052 44.7849 88.9767 45.4565 88.9767 46.2849V59.4387V72.5848C88.9767 72.8625 89.203 73.087 89.4806 73.0848L93.5716 73.0533L93.5735 73.0533L97.6682 73.0057C97.9413 73.0026 98.1613 72.7809 98.1624 72.5079L98.2176 59.3784L98.2176 59.3777L98.2543 46.2807C98.2566 45.4539 98.9275 44.7849 99.7543 44.7849H105.775H111.794C112.07 44.7849 112.294 44.5611 112.294 44.2849V40.7636V37.2422C112.294 36.9661 112.07 36.7422 111.794 36.7422H93.7158H75.6378C75.3616 36.7422 75.1378 36.9661 75.1378 37.2422V40.7636Z" stroke="#C3CDE1"/>
</g>
</g>
<path d="M5 12.757C5 10.5479 6.79086 8.75701 9 8.75701H179.355C202.066 8.75701 220.477 27.1677 220.477 49.8785V49.8785C220.477 72.5893 202.066 91 179.355 91H9C6.79086 91 5 89.2091 5 87V12.757Z" fill="#C3CDE1"/>
<g clip-path="url(#clip1_138_1338)">
<g filter="url(#filter2_d_138_1338)">
<path d="M59.0665 18.4513C56.5953 19.6701 55.587 22.4812 56.7336 24.9188C57.9396 27.5333 61.004 28.5752 63.6334 27.2974C66.7372 25.8034 67.4885 21.9307 65.1359 19.5128C64.0485 18.3923 62.981 17.9401 61.3796 17.9401C60.3911 17.9401 59.8573 18.0581 59.0665 18.4513Z" fill="#FEFEFF"/>
<path d="M183.775 31.288C180.039 32.1136 177.073 33.6076 174.385 36.0649C171.933 38.2863 170.332 40.9991 169.403 44.4196C168.928 46.1495 168.869 46.7196 168.869 49.7862C168.849 52.7153 168.928 53.482 169.284 54.9367C169.877 57.276 170.569 58.829 171.834 60.7161C174.207 64.2939 178.003 66.9084 182.747 68.2255C184.527 68.717 184.942 68.7563 188.421 68.7563C191.901 68.7563 192.316 68.717 194.095 68.2255C195.143 67.9306 196.586 67.4392 197.298 67.105C201.786 65.0802 205.463 61.2272 206.926 57.0008C208.468 52.5187 208.468 47.2503 206.926 42.7683C205.048 37.3623 200.204 33.1555 193.898 31.4649C191.664 30.8752 186.148 30.7769 183.775 31.288ZM191.051 40.2521C195.479 41.2939 198.089 44.8521 198.089 49.8845C198.089 53.0102 197.219 55.3298 195.361 57.1384C193.581 58.8879 191.209 59.8119 188.421 59.8119C182.569 59.8119 178.754 55.8999 178.754 49.8845C178.754 44.8914 181.344 41.3136 185.713 40.2717C187.215 39.8982 189.509 39.8982 191.051 40.2521Z" fill="#FEFEFF"/>
<path d="M20.6733 49.8845V67.6542C20.6733 68.208 21.1233 68.6563 21.677 68.6542L31.0723 68.6187L40.8159 68.5635C41.2239 68.5612 41.5895 68.3113 41.7399 67.9321L48.8257 50.0614L54.2473 36.3878C54.6531 35.3644 56.1734 35.6523 56.1769 36.7532L56.2196 50.1204L56.257 67.6524C56.2582 68.2069 56.7103 68.6545 57.2647 68.6502L61.3598 68.6187L65.4523 68.5712C66 68.5648 66.4407 68.119 66.4407 67.5712V49.8845V32.2093C66.4407 31.6571 65.993 31.2093 65.4407 31.2093H56.358H46.9638C46.5591 31.2093 46.1943 31.4533 46.0397 31.8273L38.6639 49.6683L32.9609 63.499C32.5441 64.5097 31.0399 64.2143 31.0364 63.121L30.9932 49.629L30.9558 32.1089C30.9546 31.5575 30.5072 31.1111 29.9558 31.1111H25.8134H21.6733C21.121 31.1111 20.6733 31.5588 20.6733 32.1111V49.8845Z" fill="#FEFEFF"/>
<path d="M111.022 49.8845V67.6502C111.022 68.2055 111.474 68.6545 112.03 68.6502L116.123 68.6187L120.222 68.5711C120.767 68.5648 121.206 68.1229 121.21 67.5777L121.302 53.5409L121.367 43.6686C121.375 42.5694 122.892 42.2849 123.297 43.3068L127.352 53.5409L133.072 67.9291C133.223 68.3098 133.591 68.5597 134.001 68.5597H138.621H143.221C143.63 68.5597 143.999 68.3097 144.15 67.9289L149.85 53.5802L153.905 43.3591C154.311 42.3376 155.828 42.6224 155.835 43.7213L155.9 53.5802L155.992 67.5777C155.996 68.1229 156.435 68.5647 156.981 68.5711L161.099 68.6187L165.172 68.6502C165.728 68.6545 166.18 68.2055 166.18 67.6502V49.8845V32.1156C166.18 31.5615 165.73 31.1131 165.176 31.1156L157.442 31.1504L149.368 31.2049C148.965 31.2076 148.604 31.4514 148.45 31.8235L143.741 43.2401C141.167 49.4904 138.98 54.7082 138.691 55.3277C138.671 55.3706 138.634 55.3985 138.603 55.3634C138.479 55.2269 138.201 54.6662 137.909 53.9734C137.553 53.1281 135.299 47.6632 132.888 41.8247L128.771 31.8242C128.618 31.4517 128.256 31.2076 127.853 31.2049L119.76 31.1504L112.026 31.1156C111.472 31.1131 111.022 31.5615 111.022 32.1156V49.8845Z" fill="#FEFEFF"/>
<path d="M69.7027 35.829V39.3504C69.7027 39.9026 70.1505 40.3503 70.7027 40.3503H76.6222H82.5417C83.094 40.3503 83.5417 40.7981 83.5417 41.3503V54.5042V67.6503C83.5417 68.2055 83.9941 68.6545 84.5494 68.6502L88.6424 68.6187L92.739 68.5711C93.2851 68.5648 93.7251 68.1215 93.7274 67.5754L93.7825 54.4452L93.8193 41.3475C93.8208 40.7964 94.2681 40.3503 94.8193 40.3503H100.84H106.859C107.411 40.3503 107.859 39.9026 107.859 39.3503V35.829V32.3076C107.859 31.7553 107.411 31.3076 106.859 31.3076H88.7807H70.7027C70.1505 31.3076 69.7027 31.7553 69.7027 32.3076V35.829Z" fill="#FEFEFF"/>
</g>
</g>
</g>
<defs>
<filter id="filter0_d_138_1338" x="0.5" y="0.5" width="224.477" height="97" filterUnits="userSpaceOnUse" color-interpolation-filters="sRGB">
<feFlood flood-opacity="0" result="BackgroundImageFix"/>
<feColorMatrix in="SourceAlpha" type="matrix" values="0 0 0 0 0 0 0 0 0 0 0 0 0 0 0 0 0 0 127 0" result="hardAlpha"/>
<feOffset dy="2"/>
<feGaussianBlur stdDeviation="2.25"/>
<feComposite in2="hardAlpha" operator="out"/>
<feColorMatrix type="matrix" values="0 0 0 0 0.396078 0 0 0 0 0.427451 0 0 0 0 0.486275 0 0 0 0.06 0"/>
<feBlend mode="normal" in2="BackgroundImageFix" result="effect1_dropShadow_138_1338"/>
<feBlend mode="normal" in="SourceGraphic" in2="effect1_dropShadow_138_1338" result="shape"/>
</filter>
<filter id="filter1_d_138_1338" x="12.0141" y="5.43458" width="205.561" height="89.5981" filterUnits="userSpaceOnUse" color-interpolation-filters="sRGB">
<feFlood flood-opacity="0" result="BackgroundImageFix"/>
<feColorMatrix in="SourceAlpha" type="matrix" values="0 0 0 0 0 0 0 0 0 0 0 0 0 0 0 0 0 0 127 0" result="hardAlpha"/>
<feOffset dy="2"/>
<feGaussianBlur stdDeviation="2.25"/>
<feComposite in2="hardAlpha" operator="out"/>
<feColorMatrix type="matrix" values="0 0 0 0 0.396078 0 0 0 0 0.427451 0 0 0 0 0.486275 0 0 0 0.06 0"/>
<feBlend mode="normal" in2="BackgroundImageFix" result="effect1_dropShadow_138_1338"/>
<feBlend mode="normal" in="SourceGraphic" in2="effect1_dropShadow_138_1338" result="shape"/>
</filter>
<filter id="filter2_d_138_1338" x="16.1733" y="15.4401" width="196.409" height="59.8161" filterUnits="userSpaceOnUse" color-interpolation-filters="sRGB">
<feFlood flood-opacity="0" result="BackgroundImageFix"/>
<feColorMatrix in="SourceAlpha" type="matrix" values="0 0 0 0 0 0 0 0 0 0 0 0 0 0 0 0 0 0 127 0" result="hardAlpha"/>
<feOffset dy="2"/>
<feGaussianBlur stdDeviation="2.25"/>
<feComposite in2="hardAlpha" operator="out"/>
<feColorMatrix type="matrix" values="0 0 0 0 0.396078 0 0 0 0 0.427451 0 0 0 0 0.486275 0 0 0 0.06 0"/>
<feBlend mode="normal" in2="BackgroundImageFix" result="effect1_dropShadow_138_1338"/>
<feBlend mode="normal" in="SourceGraphic" in2="effect1_dropShadow_138_1338" result="shape"/>
</filter>
<clipPath id="clip0_138_1338">
<path d="M16.5141 11.9346C16.5141 9.72544 18.305 7.93458 20.5141 7.93458H213.075V88.5327H20.5141C18.305 88.5327 16.5141 86.7419 16.5141 84.5327V11.9346Z" fill="white"/>
</clipPath>
<clipPath id="clip1_138_1338">
<path d="M19.8034 7C19.8034 4.79086 21.5943 3 23.8034 3H217.187V83.5981H23.8034C21.5943 83.5981 19.8034 81.8073 19.8034 79.5981V7Z" fill="white"/>
</clipPath>
</defs>
</svg>
