<svg width="236" height="235" viewBox="0 0 236 235" fill="none" xmlns="http://www.w3.org/2000/svg">
<path d="M126.546 17.1848C127.341 15.4181 129.932 15.7012 130.327 17.5979L144.562 85.9419C144.739 86.7901 145.442 87.4282 146.303 87.5223L215.701 95.1035C217.627 95.3139 218.158 97.8659 216.477 98.8278L155.876 133.485C155.124 133.916 154.735 134.781 154.911 135.629L169.146 203.973C169.541 205.87 167.278 207.164 165.844 205.862L114.156 158.938C113.515 158.355 112.571 158.252 111.819 158.682L51.2187 193.34C49.5369 194.302 47.6068 192.55 48.4021 190.783L77.0573 127.124C77.413 126.334 77.2194 125.405 76.5779 124.823L24.89 77.8983C23.4555 76.596 24.5255 74.2189 26.4515 74.4293L95.8493 82.0106C96.7107 82.1046 97.5346 81.6334 97.8903 80.8433L126.546 17.1848Z" fill="white"/>
<path fill-rule="evenodd" clip-rule="evenodd" d="M145.653 87.4515C145.179 87.3997 144.792 87.0485 144.695 86.5815L130.327 17.5981C129.932 15.7013 127.34 15.4183 126.545 17.185L97.8896 80.8435C97.5339 81.6336 96.71 82.1048 95.8486 82.0107L26.4508 74.4295C24.5248 74.2191 23.4548 76.5962 24.8893 77.8985L76.5772 124.823C77.2187 125.405 77.4123 126.334 77.0566 127.125L48.4013 190.783C47.6061 192.55 49.5362 194.302 51.218 193.34L112.696 158.18C112.925 158.05 113.211 158.081 113.406 158.258C113.71 158.533 114.193 158.436 114.366 158.065L146.532 89.0109C146.85 88.3274 146.403 87.5334 145.653 87.4515Z" fill="#FFEC89"/>
<path d="M168.594 88.5471C169.389 86.7804 171.981 87.0635 172.376 88.9602L180.369 127.335C180.545 128.183 181.248 128.821 182.11 128.915L221.076 133.172C223.002 133.382 223.533 135.934 221.851 136.896L187.825 156.356C187.073 156.786 186.683 157.652 186.86 158.5L194.853 196.875C195.248 198.771 192.985 200.066 191.55 198.763L162.528 172.416C161.887 171.833 160.943 171.73 160.191 172.16L126.164 191.62C124.483 192.582 122.553 190.83 123.348 189.063L139.437 153.32C139.793 152.529 139.6 151.6 138.958 151.018L109.936 124.67C108.501 123.368 109.571 120.991 111.497 121.201L150.464 125.458C151.325 125.552 152.149 125.081 152.505 124.291L168.594 88.5471Z" fill="white"/>
<path fill-rule="evenodd" clip-rule="evenodd" d="M130.658 184.878C129.834 186.646 131.771 188.427 133.464 187.459L160.105 172.222C160.857 171.792 161.801 171.895 162.443 172.478L191.465 198.825C192.899 200.127 195.162 198.833 194.767 196.937L186.774 158.562C186.598 157.714 186.987 156.848 187.739 156.418L221.766 136.958C223.448 135.996 222.916 133.444 220.99 133.234L182.024 128.977C181.163 128.883 180.46 128.245 180.283 127.397L174.451 99.395C174.058 97.5112 171.492 97.214 170.68 98.9583L130.658 184.878Z" fill="#FFEC89"/>
</svg>
