<svg width="28" height="28" viewBox="0 0 28 28" fill="none" xmlns="http://www.w3.org/2000/svg">
<path fill-rule="evenodd" clip-rule="evenodd" d="M28 14C28 21.732 21.732 28 14 28C6.26801 28 0 21.732 0 14C0 6.26801 6.26801 0 14 0C21.732 0 28 6.26801 28 14ZM15.5556 23.3333C15.5556 24.1924 14.8591 24.8889 14 24.8889C13.1409 24.8889 12.4444 24.1924 12.4444 23.3333C12.4444 22.4742 13.1409 21.7778 14 21.7778C14.8591 21.7778 15.5556 22.4742 15.5556 23.3333ZM14 3.66667C10.8704 3.66667 8.33333 6.20372 8.33333 9.33333H10.3333C10.3333 7.30829 11.975 5.66667 14 5.66667H14.1467C16.0907 5.66667 17.6667 7.24261 17.6667 9.18664V9.9849C17.6667 11.0233 17.0022 11.9452 16.0171 12.2735C14.2153 12.8741 13 14.5603 13 16.4595V20.2222H15V16.4595C15 15.4212 15.6645 14.4993 16.6496 14.1709C18.4513 13.5703 19.6667 11.8841 19.6667 9.9849V9.18664C19.6667 6.13804 17.1953 3.66667 14.1467 3.66667H14Z" fill="#656D7C"/>
</svg>
