<svg width="30" height="32" viewBox="0 0 30 32" fill="none" xmlns="http://www.w3.org/2000/svg">
<path fill-rule="evenodd" clip-rule="evenodd" d="M5.67829 22.6667H21.5116C24.6543 22.6667 26.2257 22.6667 27.202 21.6904C28.1783 20.714 28.1783 19.1427 28.1783 16V7.66667C28.1783 4.52397 28.1783 2.95262 27.202 1.97631C26.2257 1 24.6543 1 21.5116 1H8.17829C5.0356 1 3.46425 1 2.48794 1.97631C1.51163 2.95262 1.51163 4.52397 1.51163 7.66667V26.8333C1.51163 24.5321 3.37711 22.6667 5.67829 22.6667ZM9.84496 7.33333C8.74039 7.33333 7.84496 8.22876 7.84496 9.33333C7.84496 10.4379 8.74039 11.3333 9.84496 11.3333L19.845 11.3333C20.9495 11.3333 21.845 10.4379 21.845 9.33333C21.845 8.22876 20.9495 7.33333 19.845 7.33333L9.84496 7.33333Z" fill="#656D7C"/>
<path d="M9.84496 7.33333L9.84496 6.33333H9.84496V7.33333ZM9.84496 11.3333L9.84496 10.3333H9.84496V11.3333ZM19.845 11.3333L19.845 12.3333H19.845V11.3333ZM21.845 9.33333L20.845 9.33333V9.33333H21.845ZM19.845 7.33333L19.845 8.33333H19.845V7.33333ZM21.5116 21.6667H5.67829V23.6667H21.5116V21.6667ZM26.4949 20.9832C26.2235 21.2546 25.8328 21.4464 25.036 21.5535C24.2104 21.6645 23.1112 21.6667 21.5116 21.6667V23.6667C23.0547 23.6667 24.3126 23.6688 25.3024 23.5357C26.321 23.3988 27.2042 23.1024 27.9091 22.3975L26.4949 20.9832ZM27.1783 16C27.1783 17.5996 27.1762 18.6987 27.0652 19.5243C26.958 20.3211 26.7663 20.7119 26.4949 20.9832L27.9091 22.3975C28.614 21.6925 28.9104 20.8094 29.0473 19.7908C29.1804 18.801 29.1783 17.5431 29.1783 16H27.1783ZM27.1783 7.66667V16H29.1783V7.66667H27.1783ZM26.4949 2.68342C26.7663 2.9548 26.958 3.34552 27.0652 4.14234C27.1762 4.96793 27.1783 6.06705 27.1783 7.66667H29.1783C29.1783 6.12359 29.1804 4.86568 29.0473 3.87585C28.9104 2.85724 28.614 1.97413 27.9091 1.2692L26.4949 2.68342ZM21.5116 2C23.1112 2 24.2104 2.00212 25.036 2.11312C25.8328 2.22025 26.2235 2.41203 26.4949 2.68342L27.9091 1.2692C27.2042 0.56428 26.321 0.267903 25.3024 0.130956C24.3126 -0.00212374 23.0547 0 21.5116 0V2ZM8.17829 2H21.5116V0H8.17829V2ZM3.19504 2.68342C3.46643 2.41203 3.85714 2.22025 4.65397 2.11312C5.47956 2.00212 6.57868 2 8.17829 2V0C6.63522 0 5.37731 -0.00212374 4.38747 0.130956C3.36887 0.267903 2.48576 0.56428 1.78083 1.2692L3.19504 2.68342ZM2.51163 7.66667C2.51163 6.06705 2.51375 4.96793 2.62475 4.14234C2.73188 3.34552 2.92366 2.9548 3.19504 2.68342L1.78083 1.2692C1.07591 1.97413 0.779531 2.85724 0.642583 3.87585C0.509503 4.86568 0.511627 6.12359 0.511627 7.66667H2.51163ZM2.51163 26.8333V7.66667H0.511627V26.8333H2.51163ZM5.67829 21.6667C2.82482 21.6667 0.511627 23.9799 0.511627 26.8333H2.51163C2.51163 25.0844 3.92939 23.6667 5.67829 23.6667V21.6667ZM8.84496 9.33333C8.84496 8.78105 9.29268 8.33333 9.84496 8.33333V6.33333C8.18811 6.33333 6.84496 7.67648 6.84496 9.33333H8.84496ZM9.84496 10.3333C9.29268 10.3333 8.84496 9.88562 8.84496 9.33333H6.84496C6.84496 10.9902 8.18811 12.3333 9.84496 12.3333V10.3333ZM19.845 10.3333L9.84496 10.3333L9.84496 12.3333L19.845 12.3333L19.845 10.3333ZM20.845 9.33333C20.845 9.88562 20.3972 10.3333 19.845 10.3333V12.3333C21.5018 12.3333 22.845 10.9902 22.845 9.33333H20.845ZM19.845 8.33333C20.3972 8.33333 20.845 8.78105 20.845 9.33333L22.845 9.33334C22.845 7.67648 21.5018 6.33333 19.845 6.33333V8.33333ZM9.84496 8.33333L19.845 8.33333L19.845 6.33333L9.84496 6.33333L9.84496 8.33333ZM13.1783 30H5.67829V32H13.1783V30ZM0.511627 26.8333C0.511627 29.6868 2.82482 32 5.67829 32V30C3.92939 30 2.51163 28.5822 2.51163 26.8333H0.511627Z" fill="#656D7C"/>
</svg>
