<svg width="27" height="30" viewBox="0 0 27 30" fill="none" xmlns="http://www.w3.org/2000/svg">
<path fill-rule="evenodd" clip-rule="evenodd" d="M1.45007 10.1427C0.958328 11.2119 0.958328 12.4282 0.958328 14.8609V22.4582C0.958328 25.8366 0.958328 27.5258 2.00786 28.5754C3.04655 29.614 4.71176 29.6248 8.02083 29.6249V20.6667C8.02083 19.1249 9.2707 17.875 10.8125 17.875H16.1875C17.7293 17.875 18.9792 19.1249 18.9792 20.6667V29.6249C22.2882 29.6248 23.9534 29.614 24.9921 28.5754C26.0417 27.5258 26.0417 25.8366 26.0417 22.4582V14.8609C26.0417 12.4282 26.0417 11.2119 25.5499 10.1427C25.0582 9.07357 24.1347 8.282 22.2877 6.69885L20.496 5.16313C17.1576 2.30161 15.4883 0.87085 13.5 0.87085C11.5117 0.87085 9.84243 2.30161 6.50399 5.16313L4.71232 6.69885C2.86532 8.282 1.94181 9.07357 1.45007 10.1427ZM16.9792 29.6249V20.6667C16.9792 20.2294 16.6247 19.875 16.1875 19.875H10.8125C10.3753 19.875 10.0208 20.2294 10.0208 20.6667V29.6249H16.9792Z" fill="#656D7C"/>
</svg>
