<svg width="32" height="32" viewBox="0 0 32 32" fill="none" xmlns="http://www.w3.org/2000/svg">
<path d="M13.0874 3.6001C10.6561 3.6001 8.22498 4.525 6.37498 6.375C2.67498 10.075 2.67498 16.0998 6.37498 19.7998C8.22498 21.6498 10.6501 22.5752 13.1001 22.5752C15.5501 22.5752 17.9752 21.6498 19.8252 19.7998C23.5002 16.0998 23.4998 10.075 19.7998 6.375C17.9498 4.525 15.5186 3.6001 13.0874 3.6001ZM13.0752 5.0752C15.1252 5.0752 17.1751 5.8498 18.7251 7.4248C21.8501 10.5498 21.85 15.625 18.75 18.75C15.625 21.875 10.5498 21.875 7.42478 18.75C4.29978 15.625 4.29978 10.5498 7.42478 7.4248C8.97478 5.8748 11.0252 5.0752 13.0752 5.0752ZM13.0752 6.5752C11.3502 6.5752 9.72498 7.25 8.49998 8.5C7.32498 9.675 6.67507 11.2001 6.60007 12.8501C6.57507 13.2751 6.90017 13.6 7.32517 13.625H7.35007C7.75007 13.625 8.07507 13.2999 8.10007 12.8999C8.15007 11.6249 8.67478 10.4498 9.54978 9.5498C10.4998 8.5998 11.7502 8.0752 13.0752 8.0752C13.5002 8.0752 13.8252 7.7502 13.8252 7.3252C13.8252 6.9002 13.5002 6.5752 13.0752 6.5752ZM8.74998 16C8.55106 16 8.3603 16.079 8.21965 16.2197C8.07899 16.3603 7.99998 16.5511 7.99998 16.75C7.99998 16.9489 8.07899 17.1397 8.21965 17.2803C8.3603 17.421 8.55106 17.5 8.74998 17.5C8.94889 17.5 9.13965 17.421 9.28031 17.2803C9.42096 17.1397 9.49998 16.9489 9.49998 16.75C9.49998 16.5511 9.42096 16.3603 9.28031 16.2197C9.13965 16.079 8.94889 16 8.74998 16ZM20.8408 20.125C20.6502 20.125 20.4627 20.2001 20.3252 20.3501C20.0252 20.6501 20.0252 21.1249 20.3252 21.3999L20.9502 22.0249C20.8002 22.3249 20.7251 22.65 20.7251 23C20.7251 23.6 20.95 24.1751 21.375 24.6001L24.5752 27.75C25.0252 28.2 25.5998 28.4248 26.1748 28.4248C26.7498 28.4248 27.3249 28.1999 27.7749 27.7749C28.6499 26.8999 28.6499 25.4751 27.7749 24.6001L24.5752 21.3999C24.1502 20.9749 23.5751 20.75 22.9751 20.75C22.6251 20.75 22.3 20.8251 22 20.9751L21.375 20.3501C21.225 20.2001 21.0314 20.125 20.8408 20.125ZM22.9751 22.2251C23.1751 22.2251 23.375 22.3002 23.5 22.4502L26.6748 25.625C26.9748 25.925 26.9748 26.3998 26.6748 26.6748C26.3748 26.9748 25.9 26.9748 25.625 26.6748L22.4502 23.5249C22.3002 23.3749 22.2251 23.1751 22.2251 22.9751C22.2251 22.7751 22.3002 22.5752 22.4502 22.4502C22.6002 22.3002 22.7751 22.2251 22.9751 22.2251Z" fill="#C3CDE1"/>
</svg>
