<svg width="33" height="28" viewBox="0 0 33 28" fill="none" xmlns="http://www.w3.org/2000/svg">
<path d="M23.6666 8.12492C23.6666 12.083 20.458 15.2916 16.4999 15.2916C12.5419 15.2916 9.33326 12.083 9.33326 8.12492C9.33326 4.16688 12.5419 0.958252 16.4999 0.958252C20.458 0.958252 23.6666 4.16688 23.6666 8.12492Z" fill="#656D7C"/>
<path d="M30.8333 8.12492C30.8333 11.0935 28.4268 13.4999 25.4583 13.4999C22.4897 13.4999 20.0833 11.0935 20.0833 8.12492C20.0833 5.15639 22.4897 2.74992 25.4583 2.74992C28.4268 2.74992 30.8333 5.15639 30.8333 8.12492Z" fill="#656D7C"/>
<path d="M12.9166 8.12492C12.9166 11.0935 10.5101 13.4999 7.54159 13.4999C4.57306 13.4999 2.16659 11.0935 2.16659 8.12492C2.16659 5.15639 4.57306 2.74992 7.54159 2.74992C10.5101 2.74992 12.9166 5.15639 12.9166 8.12492Z" fill="#656D7C"/>
<path d="M26.4767 24.2499H31.52C32.1116 24.2499 32.5657 23.7399 32.4511 23.1595C31.9795 20.7715 30.3629 15.2916 25.4583 15.2916C23.8707 15.2916 22.6277 15.8658 21.6564 16.7234C24.3578 18.476 25.7545 21.5449 26.4767 24.2499Z" fill="#656D7C"/>
<path d="M11.3435 16.7234C10.3722 15.8658 9.12916 15.2916 7.54159 15.2916C2.63702 15.2916 1.02042 20.7715 0.548804 23.1595C0.434172 23.7399 0.888262 24.2499 1.47988 24.2499H6.52312C7.24531 21.5449 8.64207 18.476 11.3435 16.7234Z" fill="#656D7C"/>
<path d="M16.4999 17.0833C23.7735 17.0833 25.1414 24.1701 25.3987 26.8356C25.4517 27.3854 25.0105 27.8333 24.4583 27.8333H8.54158C7.9893 27.8333 7.54812 27.3854 7.60117 26.8356C7.85842 24.1701 9.22632 17.0833 16.4999 17.0833Z" fill="#656D7C"/>
</svg>
