<svg width="69" height="66" viewBox="0 0 69 66" fill="none" xmlns="http://www.w3.org/2000/svg">
<path d="M67.7871 33C67.7871 50.9333 52.7406 65.5 34.1436 65.5C15.5465 65.5 0.5 50.9333 0.5 33C0.5 15.0667 15.5465 0.5 34.1436 0.5C52.7406 0.5 67.7871 15.0667 67.7871 33Z" stroke="#D7DFEC"/>
<path fill-rule="evenodd" clip-rule="evenodd" d="M68.2871 33C68.2871 42.8412 63.8301 51.6762 56.7605 57.7223C55.0503 55.3011 52.6609 53.1671 49.7325 51.478C45.2602 48.8983 39.7806 47.5 34.1435 47.5C28.5064 47.5 23.0268 48.8983 18.5545 51.4779C15.6261 53.1671 13.2368 55.301 11.5265 57.7222C4.45702 51.6761 0 42.8411 0 33C0 14.7746 15.2866 0 34.1436 0C53.0005 0 68.2871 14.7746 68.2871 33ZM34.1436 44.75C42.0006 44.75 48.3701 38.5939 48.3701 31C48.3701 23.4061 42.0006 17.25 34.1436 17.25C26.2865 17.25 19.9171 23.4061 19.9171 31C19.9171 38.5939 26.2865 44.75 34.1436 44.75Z" fill="#D7DFEC"/>
</svg>
